# xmcd
#
# Track frame offsets:
#	150
#	18156
#	32660
#	43401
#	51187
#	65321
#	80893
#	100638
#	109140
#	123388
#	133494
#	144868
#	159647
#	172817
#	182433
#	204935
#
# Disc length: 3011 seconds
#
# Revision: 0
# Processed by: cddbd v1.5.1PL0 Copyright (c) Steve Scherf et al.
# Submitted via: EasyCDDAExtractor 4.6.9.1
#
DISCID=d60bc110
DTITLE=Marty Robbins - Gunfighter Ballads And Trail Songs-4 Bonus Tracks
DYEAR=1999
DGENRE=Country
TTITLE0=Big Iron
TTITLE1=Cool Water
TTITLE2=Billy The Kid
TTITLE3=A Hundred And Sixty Acres
TTITLE4=They're Hanging Me Tonight
TTITLE5=The Strawberry Roan
TTITLE6=El Paso
TTITLE7=In The Valley
TTITLE8=The Master's Call
TTITLE9=Running Gun
TTITLE10=Little Green Valley
TTITLE11=Utah Carol
TTITLE12=The Hanging Tree (Bonus)
TTITLE13=Saddle Tramp (Bonus)
TTITLE14=Mister Shorty  (Bonus)
TTITLE15=El Paso (Bonus Full Length)
EXTD=
EXTT0=
EXTT1=
EXTT2=
EXTT3=
EXTT4=
EXTT5=
EXTT6=
EXTT7=
EXTT8=
EXTT9=
EXTT10=
EXTT11=
EXTT12=
EXTT13=
EXTT14=
EXTT15=
PLAYORDER=
